<?xml version="1.0" standalone="no"?><!DOCTYPE svg PUBLIC "-//W3C//DTD SVG 1.1//EN" "http://www.w3.org/Graphics/SVG/1.1/DTD/svg11.dtd"><svg t="1588485587925" class="icon" viewBox="0 0 1706 1024" version="1.1" xmlns="http://www.w3.org/2000/svg" p-id="2731" xmlns:xlink="http://www.w3.org/1999/xlink" width="53.3125" height="32"><defs><style type="text/css"></style></defs><path d="M853.342009 146.262065c-95.658587 0-187.733177 18.261318-276.821103 54.698621a81.578599 81.578599 0 0 1-78.506601-6.911994 71.42394 71.42394 0 0 1-31.487974-68.26661 73.983938 73.983938 0 0 1 48.12796-58.879951A883.796597 883.796597 0 0 1 853.342009 0.000853c312.661073 0 592.895506 158.463868 837.972635 468.22361 20.479983 25.941312 20.479983 61.610615 0 87.551927C1446.152182 865.536132 1166.003082 1024 853.342009 1024 540.680936 1024 260.446503 865.536132 15.369374 555.77639A69.887942 69.887942 0 0 1 17.332039 465.920465C103.262634 366.251215 168.969246 296.448606 215.987873 255.317974a81.066599 81.066599 0 0 1 75.690604-16.21332c26.453311 7.765327 46.591961 28.24531 52.735956 53.759955a70.655941 70.655941 0 0 1-22.954648 69.973275c-33.791972 29.354642-82.261265 79.7866-144.725212 150.613208C384.435733 758.357555 609.288879 877.738789 853.342009 877.738789c244.56513 0 469.759609-119.8079 677.802102-365.738362C1323.101617 266.069965 1097.907138 146.262065 853.342009 146.262065zM853.342009 256.00064a255.999787 255.999787 0 1 1 0 511.999573 255.999787 255.999787 0 0 1 0-511.999573z m0 170.666524a85.333262 85.333262 0 1 0 0 170.666525 85.333262 85.333262 0 0 0 0-170.666525z" p-id="2732"></path></svg>