<?xml version="1.0" standalone="no"?><!DOCTYPE svg PUBLIC "-//W3C//DTD SVG 1.1//EN" "http://www.w3.org/Graphics/SVG/1.1/DTD/svg11.dtd"><svg t="1588581461246" class="icon" viewBox="0 0 1024 1024" version="1.1" xmlns="http://www.w3.org/2000/svg" p-id="2734" xmlns:xlink="http://www.w3.org/1999/xlink" width="32" height="32"><defs><style type="text/css"></style></defs><path d="M832 128H128C57.344 128 0 185.344 0 256v576c0 70.656 57.344 128 128 128h704c70.656 0 128-57.344 128-128V256c0-70.656-57.344-128-128-128z m64 704c0 35.392-28.608 64-64 64H128c-35.392 0-64-28.608-64-64V256c0-35.392 28.608-64 64-64h704c35.392 0 64 28.608 64 64v576zM368.448 324.544c-9.856-5.888-22.208-6.016-32.256-0.448C326.208 329.792 320 340.48 320 352v384c0 11.584 6.208 22.144 16.192 27.904A32.353 32.353 0 0 0 352 768c5.696 0 11.392-1.472 16.448-4.544l320.064-192C698.048 565.696 704 555.264 704 544s-5.952-21.632-15.488-27.456l-320.064-192zM384 679.488V408.512L609.792 544 384 679.488z" p-id="2735"></path></svg>